<svg xmlns="http://www.w3.org/2000/svg" viewBox="0 -0.5 13 12" shape-rendering="crispEdges">
<metadata>Made with Pixels to Svg https://codepen.io/shshaw/pen/XbxvNj</metadata>
<path stroke="#000000" d="M2 0h3M8 0h3M1 1h1M5 1h1M7 1h1M11 1h1M0 2h1M6 2h1M12 2h1M0 3h1M12 3h1M0 4h1M12 4h1M0 5h1M12 5h1M1 6h1M11 6h1M2 7h1M10 7h1M3 8h1M9 8h1M4 9h1M8 9h1M5 10h1M7 10h1M6 11h1" />
<path stroke="#dbdbdb" d="M2 1h3M8 1h2M1 2h1M4 2h2M7 2h4M1 3h1M3 3h8M1 4h10M1 5h1M3 5h8M2 6h8M3 7h6M4 8h4M5 9h2" />
<path stroke="#737373" d="M10 1h1M11 2h1M11 3h1M11 4h1M11 5h1M10 6h1M9 7h1M8 8h1M7 9h1M6 10h1" />
<path stroke="#ffffff" d="M2 2h2M2 3h1M2 5h1" />
</svg>