<svg xmlns="http://www.w3.org/2000/svg" viewBox="0 -0.5 39 8" shape-rendering="crispEdges">
<metadata>Made with Pixels to Svg https://codepen.io/shshaw/pen/XbxvNj</metadata>
<path stroke="#3d3b52" d="M1 0h3M5 0h3M0 1h1M4 1h1M8 1h29M0 2h1M8 2h1M37 2h1M0 3h1M8 3h1M38 3h1M1 4h1M7 4h1M38 4h1M2 5h1M6 5h1M37 5h1M3 6h1M5 6h32M4 7h1" />
<path stroke="#e25a56" d="M1 1h1M1 2h1M1 3h2M2 4h2M3 5h2M4 6h1" />
<path stroke="#f3776e" d="M2 1h2M5 1h3M2 2h4M7 2h1M3 3h3M7 3h1M4 4h1M6 4h1M5 5h1" />
<path stroke="#000000" d="M6 2h1M6 3h1M5 4h1" />
<path stroke="#d4d4d4" d="M9 2h28M9 3h29M8 4h30M7 5h30" />
</svg>