<svg xmlns="http://www.w3.org/2000/svg" viewBox="0 -0.5 15 14" shape-rendering="crispEdges">
<metadata>Made with Pixels to Svg https://codepen.io/shshaw/pen/XbxvNj</metadata>
<path stroke="#3d3b52" d="M6 0h2M5 1h1M8 1h1M4 2h1M9 2h1M3 3h1M9 3h1M2 4h1M9 4h4M1 5h1M13 5h1M0 6h1M14 6h1M0 7h1M14 7h1M1 8h1M13 8h1M2 9h1M9 9h4M3 10h1M9 10h1M4 11h1M9 11h1M5 12h1M8 12h1M6 13h2" />
<path stroke="#f4805b" d="M6 1h2M5 2h1M7 2h2M4 3h5M3 4h1M5 4h4M2 5h1M4 5h8M1 6h1M3 6h8M1 7h9M2 8h5M3 9h4M6 10h1" />
<path stroke="#fcbdac" d="M6 2h1M4 4h1M3 5h1M2 6h1" />
<path stroke="#fe5c3c" d="M12 5h1M11 6h3M10 7h4M7 8h6M7 9h2M4 10h2M7 10h2M5 11h4M6 12h2" />
</svg>