<svg xmlns="http://www.w3.org/2000/svg" viewBox="0 -0.5 15 14" shape-rendering="crispEdges">
<metadata>Made with Pixels to Svg https://codepen.io/shshaw/pen/XbxvNj</metadata>
<path stroke="#3d3b52" d="M7 0h2M6 1h1M9 1h1M5 2h1M10 2h1M5 3h1M11 3h1M2 4h4M12 4h1M1 5h1M13 5h1M0 6h1M14 6h1M0 7h1M14 7h1M1 8h1M13 8h1M2 9h4M12 9h1M5 10h1M11 10h1M5 11h1M10 11h1M6 12h1M9 12h1M7 13h2" />
<path stroke="#75a050" d="M7 1h2M6 2h2M9 2h1M6 3h5M6 4h4M11 4h1M3 5h8M12 5h1M4 6h8M13 6h1M5 7h9M8 8h5M8 9h4M8 10h1" />
<path stroke="#beea94" d="M8 2h1M10 4h1M11 5h1M12 6h1" />
<path stroke="#4f722a" d="M2 5h1M1 6h3M1 7h4M2 8h6M6 9h2M6 10h2M9 10h2M6 11h4M7 12h2" />
</svg>